<?xml version="1.0" encoding="UTF-8"?>
<svg version="1.1" xmlns="http://www.w3.org/2000/svg" width="161" height="146">
<path d="M0 0 C0.66 0 1.32 0 2 0 C6.29 20.79 10.58 41.58 15 63 C15.99 60.03 16.98 57.06 18 54 C27.57 54 37.14 54 47 54 C47.33 53.01 47.66 52.02 48 51 C50.84083641 49.57958179 52.85477278 49.68547728 56 50 C58.375 51.625 58.375 51.625 60 54 C60.61195145 57.6717087 60.48706506 59.28813568 58.375 62.375 C55.32214079 64.46379841 53.63031776 64.54068562 50 64 C49.55873779 63.50653076 49.11747559 63.01306152 48.6628418 62.50463867 C46.31106731 60.37661252 44.59152829 60.57120445 41.45703125 60.48828125 C40.38388672 60.45283203 39.31074219 60.41738281 38.20507812 60.38085938 C37.08552734 60.35830078 35.96597656 60.33574219 34.8125 60.3125 C33.68134766 60.27833984 32.55019531 60.24417969 31.38476562 60.20898438 C28.5899426 60.12643686 25.79543602 60.05730818 23 60 C22.74476562 61.23621094 22.48953125 62.47242188 22.2265625 63.74609375 C20.92235263 69.61503815 19.15635985 75.32376958 17.375 81.0625 C17.05015625 82.11888672 16.7253125 83.17527344 16.390625 84.26367188 C15.59685528 86.84342348 14.79992286 89.42215108 14 92 C12.37629056 89.04356044 11.51869704 86.34941603 10.85498047 83.04785156 C10.65492401 82.06713684 10.45486755 81.08642212 10.24874878 80.07598877 C9.93612595 78.4992337 9.93612595 78.4992337 9.6171875 76.890625 C9.39805695 75.80867859 9.17892639 74.72673218 8.95315552 73.61199951 C8.25509339 70.15905223 7.56495481 66.70457542 6.875 63.25 C6.40286505 60.90744696 5.930215 58.56499767 5.45703125 56.22265625 C4.29870957 50.482961 3.14688785 44.74199021 2 39 C-3.55675141 76.99180805 -3.55675141 76.99180805 -9 115 C-9.66 115 -10.32 115 -11 115 C-11.3556604 113.06966919 -11.3556604 113.06966919 -11.71850586 111.1003418 C-12.59785315 106.33089772 -13.48001675 101.56197818 -14.36303711 96.79321289 C-14.74499254 94.7282511 -15.12618162 92.66314741 -15.5065918 90.59790039 C-16.05316506 87.6312974 -16.6024823 84.6652138 -17.15234375 81.69921875 C-17.40708717 80.31158577 -17.40708717 80.31158577 -17.66697693 78.8959198 C-17.82706741 78.03525406 -17.9871579 77.17458832 -18.15209961 76.2878418 C-18.29199814 75.53061325 -18.43189667 74.7733847 -18.57603455 73.99320984 C-19.0022507 71.8066911 -19.0022507 71.8066911 -20 69 C-20.17128418 69.80743652 -20.34256836 70.61487305 -20.51904297 71.44677734 C-21.29665551 75.09121261 -22.08567359 78.73308467 -22.875 82.375 C-23.14441406 83.64601563 -23.41382812 84.91703125 -23.69140625 86.2265625 C-23.95566406 87.43828125 -24.21992187 88.65 -24.4921875 89.8984375 C-24.85352783 91.57945557 -24.85352783 91.57945557 -25.22216797 93.29443359 C-26 96 -26 96 -28 98 C-28.29245605 97.34926514 -28.58491211 96.69853027 -28.88623047 96.02807617 C-30.21305258 93.07996269 -31.54397643 90.13371883 -32.875 87.1875 C-33.33519531 86.16333984 -33.79539062 85.13917969 -34.26953125 84.08398438 C-34.71425781 83.10107422 -35.15898438 82.11816406 -35.6171875 81.10546875 C-36.02565918 80.19949951 -36.43413086 79.29353027 -36.85498047 78.36010742 C-38.01978732 75.82311658 -38.01978732 75.82311658 -40 73 C-42.64 76.96 -45.28 80.92 -48 85 C-48.99 84.67 -49.98 84.34 -51 84 C-51.32355469 83.17371094 -51.64710937 82.34742187 -51.98046875 81.49609375 C-53.532357 77.56363905 -54.64966276 75.65449797 -58 73 C-65.83438294 71.48634457 -74.09815552 72.34066766 -82 73 C-70.96749558 85.38041509 -59.13371662 96.98389873 -47.38861084 108.68005371 C-44.6308925 111.42739735 -41.87613276 114.17770437 -39.12109375 116.92773438 C-33.75022353 122.28799679 -28.37617682 127.64505938 -23 133 C-21.89523466 132.06314357 -20.79192384 131.1245718 -19.68920898 130.18530273 C-19.0746434 129.66282455 -18.46007782 129.14034637 -17.82688904 128.60203552 C-14.59178099 125.7651046 -11.62651963 122.66907799 -8.62695312 119.58789062 C-5.94161943 116.8596488 -3.1936946 114.27309624 -0.28710938 111.78051758 C3.88663266 108.14411707 7.83732437 104.32402646 11.75390625 100.4140625 C12.45845444 99.71284271 13.16300262 99.01162292 13.88890076 98.28915405 C15.3666088 96.81647171 16.84299879 95.34246571 18.31811523 93.8671875 C20.55497615 91.63251649 22.79972542 89.40597962 25.04492188 87.1796875 C26.49007351 85.73747017 27.93475084 84.29477739 29.37890625 82.8515625 C30.03951553 82.19813873 30.70012482 81.54471497 31.38075256 80.87149048 C36.01448922 76.21527942 40.07222903 71.26280416 44 66 C46.97 66.99 46.97 66.99 50 68 C49.47675924 72.20799302 47.14662972 74.351369 44.3112793 77.37011719 C43.5794759 78.15165728 43.5794759 78.15165728 42.8328886 78.94898605 C36.69690131 85.45744061 30.35733576 91.7673821 24.01953125 98.078125 C22.71223764 99.38354779 21.40516889 100.68919579 20.09831238 101.99505615 C16.6992777 105.39031785 13.29724857 108.78256288 9.89453125 112.1741333 C6.40634675 115.65198986 2.92107949 119.13276732 -0.56445312 122.61328125 C-7.37349137 129.41167452 -14.18570479 136.20687629 -21 143 C-25.0823021 141.37762918 -27.81919972 138.45552411 -30.85083008 135.39208984 C-31.42538437 134.8194339 -31.99993866 134.24677795 -32.59190369 133.6567688 C-34.48936641 131.76300891 -36.37953238 129.86214423 -38.26953125 127.9609375 C-39.59189455 126.63738122 -40.91462868 125.31419536 -42.23771667 123.99136353 C-45.01225463 121.21526115 -47.78340153 118.43583225 -50.55200195 115.65380859 C-54.08397634 112.1049193 -57.62242179 108.56257245 -61.16324329 105.02251244 C-63.89776012 102.28772218 -66.62965098 99.55032127 -69.36069298 96.81206131 C-70.66332766 95.5062644 -71.96655128 94.20105471 -73.27039528 92.8964653 C-79.72341388 86.43572148 -86.12599363 80.0004874 -92 73 C-93.14503316 71.66597943 -94.29083863 70.33262129 -95.4375 69 C-96.283125 68.01 -97.12875 67.02 -98 66 C-91.8070403 65.87639942 -85.61479841 65.78565946 -79.42089844 65.7253418 C-77.31400039 65.70019788 -75.20718957 65.66607793 -73.10058594 65.62280273 C-70.0720468 65.56214632 -67.0446607 65.53378917 -64.015625 65.51171875 C-62.60292328 65.47300911 -62.60292328 65.47300911 -61.16168213 65.43351746 C-54.62146096 65.43071264 -54.62146096 65.43071264 -51.37402344 68.40551758 C-50 71 -50 71 -50 73 C-49.34 73 -48.68 73 -48 73 C-47.74476562 72.28457031 -47.48953125 71.56914063 -47.2265625 70.83203125 C-45.9123112 67.79753382 -44.30503984 65.36811089 -42.375 62.6875 C-41.74335937 61.80449219 -41.11171875 60.92148437 -40.4609375 60.01171875 C-39.97882812 59.34785156 -39.49671875 58.68398438 -39 58 C-35.58123361 59.7093832 -34.798198 63.67517306 -33.375 67.0625 C-33.05015625 67.82111328 -32.7253125 68.57972656 -32.390625 69.36132812 C-31.58786154 71.23837799 -30.79316857 73.1188756 -30 75 C-26.05427709 61.14354956 -23.06086199 47.07291108 -20 33 C-17.56273671 36.65589493 -17.03614827 40.14651702 -16.2734375 44.38671875 C-16.12089508 45.20372757 -15.96835266 46.02073639 -15.81118774 46.86250305 C-15.32595003 49.46967816 -14.85036602 52.07850881 -14.375 54.6875 C-14.04750969 56.45649782 -13.7193922 58.22537966 -13.390625 59.99414062 C-12.58646888 64.3281153 -11.79096553 68.66359944 -11 73 C-10.90643723 72.36567551 -10.81287445 71.73135101 -10.71647644 71.07780457 C-9.72774251 64.37583698 -8.73764997 57.67407104 -7.74682617 50.97241211 C-7.37897636 48.48320404 -7.01145398 45.99394756 -6.64428711 43.50463867 C-4.50330485 28.99094035 -2.32940455 14.48476256 0 0 Z " fill="#1D4D92" transform="translate(101,0)"/>
<path d="M0 0 C3.53474842 2.74433061 6.89270149 5.6644635 10.18359375 8.6953125 C13.35392009 7.28314041 15.59234237 5.55881874 18.12109375 3.1953125 C20.99952681 0.60741287 23.38840338 -1.23729021 27.18359375 -2.3046875 C27.29597788 0.85611617 27.11665529 3.66161508 26.18359375 6.6953125 C24.37965046 8.55522539 22.50610291 9.81389221 20.328125 11.2109375 C17.00556334 13.51070695 14.65452713 16.531769 12.18359375 19.6953125 C9.17325863 18.36244274 7.30721041 16.95111936 5.12109375 14.5078125 C-3.21932376 5.9530802 -13.25714969 0.7081618 -25.19140625 0.2578125 C-36.36718648 0.55774592 -44.81256128 4.87601194 -52.72265625 12.54296875 C-60.13117512 20.43806407 -62.76681968 28.82912243 -63.37890625 39.4453125 C-63.42208984 40.14269531 -63.46527344 40.84007812 -63.50976562 41.55859375 C-63.61530221 43.27063172 -63.71630535 44.98294811 -63.81640625 46.6953125 C-67.95543038 40.4867763 -67.4435703 33.83034324 -66.35546875 26.65625 C-63.83765057 15.19277193 -58.43815987 6.51376309 -48.81640625 -0.3046875 C-33.09552203 -9.38127348 -15.33206105 -10.87729108 0 0 Z " fill="#F4502F" transform="translate(67.81640625,9.3046875)"/>
<path d="M0 0 C9.64223171 6.74551084 16.42535624 15.90707439 19.375 27.4375 C19.79596128 30.5526135 19.74903837 33.611543 19.6875 36.75 C17.7075 36.75 15.7275 36.75 13.6875 36.75 C13.54054687 35.99976563 13.39359375 35.24953125 13.2421875 34.4765625 C10.59219589 22.38407205 5.49342739 13.74599699 -4.6875 6.5625 C-12.47353437 1.5845436 -20.27716286 1.26630498 -29.3125 0.75 C-29.6425 -1.23 -29.9725 -3.21 -30.3125 -5.25 C-19.93763627 -8.09211189 -9.17216566 -5.32635604 0 0 Z " fill="#E75539" transform="translate(138.3125,8.25)"/>
<path d="M0 0 C-3 1 -3 1 -6.3125 0.0625 C-12.78960206 -1.69522658 -21.59743025 -2.84537587 -27.62890625 0.42578125 C-28.41136719 0.94527344 -29.19382812 1.46476563 -30 2 C-32.35142102 2.81920474 -34.71111516 3.48918435 -37.109375 4.15625 C-37.73328125 4.4346875 -38.3571875 4.713125 -39 5 C-39.33 5.99 -39.66 6.98 -40 8 C-38.68 8.33 -37.36 8.66 -36 9 C-36.74443359 9.51046875 -36.74443359 9.51046875 -37.50390625 10.03125 C-46.77018483 16.64248481 -53.76187673 24.54726112 -56 36 C-56.22288501 38.58656673 -56.41314385 41.15952778 -56.5625 43.75 C-56.60568359 44.44738281 -56.64886719 45.14476562 -56.69335938 45.86328125 C-56.79889596 47.57531922 -56.8998991 49.28763561 -57 51 C-61.13902413 44.7914638 -60.62716405 38.13503074 -59.5390625 30.9609375 C-57.02124432 19.49745943 -51.62175362 10.81845059 -42 4 C-28.64838876 -3.70866611 -14.61547433 -5.9024031 0 0 Z " fill="#E65338" transform="translate(61,5)"/>
<path d="M0 0 C-0.33 1.65 -0.66 3.3 -1 5 C-3.4375 4.625 -3.4375 4.625 -6 4 C-6.495 3.01 -6.495 3.01 -7 2 C-9.71446979 1.68758545 -12.33909361 1.48663408 -15.0625 1.375 C-15.82111328 1.33632812 -16.57972656 1.29765625 -17.36132812 1.2578125 C-19.24047195 1.16326438 -21.12020336 1.08053244 -23 1 C-23 1.66 -23 2.32 -23 3 C-34.52164009 7.59225513 -34.52164009 7.59225513 -40 7 C-39.80078125 5.1328125 -39.80078125 5.1328125 -39 3 C-36.85546875 1.8046875 -36.85546875 1.8046875 -34.1875 0.875 C-30.54012554 -0.39927118 -30.54012554 -0.39927118 -27.0859375 -2.09765625 C-18.90805254 -5.63528064 -8.04511528 -2.75832524 0 0 Z " fill="#F6502F" transform="translate(61,6)"/>
<path d="M0 0 C0.33 0 0.66 0 1 0 C1.33 4.62 1.66 9.24 2 14 C2.99 12.02 3.98 10.04 5 8 C6.01691751 11.05075253 6.0055931 12.20597458 5.56274414 15.2878418 C5.4425441 16.14850754 5.32234406 17.00917328 5.19850159 17.8959198 C5.06209763 18.82100845 4.92569366 19.74609711 4.78515625 20.69921875 C4.65056503 21.64940384 4.51597382 22.59958893 4.37730408 23.5785675 C3.94555084 26.61585034 3.50414487 29.65164129 3.0625 32.6875 C2.76824385 34.74535182 2.47461618 36.8032936 2.18164062 38.86132812 C1.46171795 43.90862536 0.73313469 48.95460563 0 54 C-0.33 54 -0.66 54 -1 54 C-1.02692484 51.70839681 -1.04636124 49.41670454 -1.0625 47.125 C-1.07410156 45.84882812 -1.08570312 44.57265625 -1.09765625 43.2578125 C-1 40 -1 40 0 38 C0.20758661 35.53779216 0.37387758 33.09139397 0.5 30.625 C0.87356967 23.40265313 0.87356967 23.40265313 1.71875 20.7109375 C1.8115625 20.14632812 1.904375 19.58171875 2 19 C0.64555699 17.22809091 0.64555699 17.22809091 -1 16 C-1.04898438 16.97839844 -1.09796875 17.95679687 -1.1484375 18.96484375 C-1.55892238 26.16248379 -2.15869223 33.00303049 -4 40 C-4.33 40 -4.66 40 -5 40 C-4.37631512 31.01643884 -3.25299295 22.15630561 -1.9375 13.25 C-1.75123047 11.96867187 -1.56496094 10.68734375 -1.37304688 9.3671875 C-0.91859746 6.24430437 -0.46086118 3.12194219 0 0 Z " fill="#224A84" transform="translate(96,33)"/>
<path d="M0 0 C9.57 0 19.14 0 29 0 C29 0.33 29 0.66 29 1 C19.76 1 10.52 1 1 1 C1 2.32 1 3.64 1 5 C10.57 5 20.14 5 30 5 C29.67 5.66 29.34 6.32 29 7 C21.08 6.67 13.16 6.34 5 6 C4.34 8.97 3.68 11.94 3 15 C2.32069123 17.36270531 1.61530786 19.71819177 0.875 22.0625 C0.34519531 23.75052734 0.34519531 23.75052734 -0.1953125 25.47265625 C-0.46085937 26.30667969 -0.72640625 27.14070313 -1 28 C-1.33 28 -1.66 28 -2 28 C-2.1799928 22.78020872 -1.97094808 18.92737019 0 14 C0.66 14 1.32 14 2 14 C1.65555119 11.52733235 1.65555119 11.52733235 1 9 C0.34 8.67 -0.32 8.34 -1 8 C-1 8.99 -1 9.98 -1 11 C-1.99 10.67 -2.98 10.34 -4 10 C-2.68 6.7 -1.36 3.4 0 0 Z " fill="#234B87" transform="translate(119,54)"/>
<path d="M0 0 C1.9609375 0.68359375 1.9609375 0.68359375 4 2 C4.5390625 4.28515625 4.5390625 4.28515625 4.625 7.0625 C4.90608502 12.25914507 5.75826228 16.95026659 7 22 C5.35 22.33 3.7 22.66 2 23 C1.4375 21.0625 1.4375 21.0625 1 19 C1.33 18.67 1.66 18.34 2 18 C0.68 17.67 -0.64 17.34 -2 17 C-2.21824777 10.9981863 -1.5056904 5.80766296 0 0 Z " fill="#194E9A" transform="translate(101,12)"/>
<path d="M0 0 C-3 1 -3 1 -6.3125 0.0625 C-12.78960206 -1.69522658 -21.59743025 -2.84537587 -27.62890625 0.42578125 C-28.41136719 0.94527344 -29.19382812 1.46476563 -30 2 C-32.35142102 2.81920474 -34.71111516 3.48918435 -37.109375 4.15625 C-37.73328125 4.4346875 -38.3571875 4.713125 -39 5 C-39.33 5.99 -39.66 6.98 -40 8 C-38.68 8.33 -37.36 8.66 -36 9 C-37.27007214 9.9593419 -38.54108919 10.91743294 -39.8125 11.875 C-40.87404297 12.67550781 -40.87404297 12.67550781 -41.95703125 13.4921875 C-43.60456297 14.70814781 -45.29624211 15.86416141 -47 17 C-46.690625 16.401875 -46.38125 15.80375 -46.0625 15.1875 C-44.89790296 12.91043228 -44.89790296 12.91043228 -44 10 C-43.01 10 -42.02 10 -41 10 C-41.33 9.01 -41.66 8.02 -42 7 C-42.66 6.67 -43.32 6.34 -44 6 C-30.60925719 -3.78189014 -15.74756751 -6.35959457 0 0 Z " fill="#DD5940" transform="translate(61,5)"/>
<path d="M0 0 C1.125 3.75 1.125 3.75 0 6 C0.99 5.67 1.98 5.34 3 5 C2.79503906 5.62003906 2.59007812 6.24007813 2.37890625 6.87890625 C-0.07871624 14.95731129 -0.67148621 22.60590627 -1 31 C-5.16780011 24.74829984 -4.74278394 17.8734132 -3.36328125 10.6796875 C-1.43377976 2.86755952 -1.43377976 2.86755952 0 0 Z " fill="#DC583F" transform="translate(5,25)"/>
<path d="M0 0 C2 2 2 2 2.046875 4.328125 C1.94890625 5.29234375 1.8509375 6.2565625 1.75 7.25 C1.64300781 8.3121875 1.53601563 9.374375 1.42578125 10.46875 C0.71931565 16.32787755 -0.11108903 22.16598238 -1 28 C-1.66 28 -2.32 28 -3 28 C-3.53160457 25.58525383 -4.05054766 23.16891893 -4.5625 20.75 C-4.71396484 20.06808594 -4.86542969 19.38617188 -5.02148438 18.68359375 C-5.75233495 15.18230962 -6.32203546 12.39701827 -5 9 C-4.01 10.485 -4.01 10.485 -3 12 C-2.01 12 -1.02 12 0 12 C0 8.04 0 4.08 0 0 Z " fill="#284A7E" transform="translate(93,87)"/>
<path d="M0 0 C5.13029608 1.0737829 7.32377795 2.94354108 10.09765625 7.1796875 C11.27185963 9.54842679 11.39376434 11.40115539 11 14 C9.68 14.33 8.36 14.66 7 15 C6.67 13.35 6.34 11.7 6 10 C5.01 9.67 4.02 9.34 3 9 C3 7.68 3 6.36 3 5 C1.68 4.34 0.36 3.68 -1 3 C-0.67 2.01 -0.34 1.02 0 0 Z " fill="#F6502D" transform="translate(142,15)"/>
<path d="M0 0 C0.66 0 1.32 0 2 0 C2.36504603 1.58086048 2.71660506 3.16483907 3.0625 4.75 C3.25972656 5.63171875 3.45695312 6.5134375 3.66015625 7.421875 C3.99825872 9.98679028 3.81158635 11.57091639 3 14 C2.34 13.67 1.68 13.34 1 13 C-0.7899856 19.3246158 -1.54240047 25.4491015 -2 32 C-2.66 32 -3.32 32 -4 32 C-3.43739111 21.19402929 -1.78964322 10.65907 0 0 Z " fill="#2A4D83" transform="translate(101,0)"/>
<path d="M0 0 C3.37503669 1.1858237 5.64722731 2.27573689 8 5 C5.69 4.67 3.38 4.34 1 4 C1.99 5.98 2.98 7.96 4 10 C1.49308338 8.99813189 -1.01231894 7.99491508 -3.5078125 6.96484375 C-10.03831146 4.40137923 -15.99667949 3.27092149 -23 3 C-23 2.34 -23 1.68 -23 1 C-17.39 1 -11.78 1 -6 1 C-5.67 1.99 -5.34 2.98 -5 4 C-3.68 4 -2.36 4 -1 4 C-0.67 2.68 -0.34 1.36 0 0 Z " fill="#E2593F" transform="translate(61,6)"/>
<path d="M0 0 C0.99 0.33 1.98 0.66 3 1 C-2.61 6.61 -8.22 12.22 -14 18 C-14.33 16.68 -14.66 15.36 -15 14 C-14.34 13.34 -13.68 12.68 -13 12 C-12.01 12 -11.02 12 -10 12 C-10 11.34 -10 10.68 -10 10 C-9.34 10 -8.68 10 -8 10 C-8 8.68 -8 7.36 -8 6 C-6.68 6 -5.36 6 -4 6 C-4 5.34 -4 4.68 -4 4 C-7.37503669 5.1858237 -9.64722731 6.27573689 -12 9 C-12.66 8.67 -13.32 8.34 -14 8 C-11.69 5.69 -9.38 3.38 -7 1 C-6.67 1.66 -6.34 2.32 -6 3 C-3.52733235 2.65555119 -3.52733235 2.65555119 -1 2 C-0.67 1.34 -0.34 0.68 0 0 Z " fill="#214A89" transform="translate(123,96)"/>
<path d="M0 0 C0.99 0 1.98 0 3 0 C3 0.66 3 1.32 3 2 C3.763125 2.268125 4.52625 2.53625 5.3125 2.8125 C9.49651972 4.6612529 9.49651972 4.6612529 11 7 C10.6875 10.1875 10.6875 10.1875 10 13 C6.19364503 9.79239749 2.45436433 6.59253891 -1 3 C-0.67 2.01 -0.34 1.02 0 0 Z " fill="#1A4C97" transform="translate(39,100)"/>
<path d="M0 0 C2.02350324 3.03525486 2.32124018 4.19426202 2.625 7.6875 C2.69976562 8.49574219 2.77453125 9.30398437 2.8515625 10.13671875 C2.92503906 11.05904297 2.92503906 11.05904297 3 12 C2.34 11.01 1.68 10.02 1 9 C0.67 11.64 0.34 14.28 0 17 C-0.66 17 -1.32 17 -2 17 C-2.144375 18.19625 -2.28875 19.3925 -2.4375 20.625 C-2.87039343 24.1005158 -3.39616256 27.54950034 -4 31 C-4.66 31 -5.32 31 -6 31 C-5.29030646 24.21304565 -3.92442573 17.65576279 -2.4375 11 C-2.20353516 9.93910156 -1.96957031 8.87820312 -1.72851562 7.78515625 C-1.15557205 5.18937106 -0.57932765 2.59436646 0 0 Z " fill="#244C84" transform="translate(81,33)"/>
<path d="M0 0 C5.98808129 1.31445687 9.03429323 4.61191026 13 9 C11.33333333 9 9.66666667 9 8 9 C8.33 9.99 8.66 10.98 9 12 C9.66 12.33 10.32 12.66 11 13 C10.67 14.32 10.34 15.64 10 17 C9.2265625 15.9171875 9.2265625 15.9171875 8.4375 14.8125 C5.56617403 11.49943158 2.6293662 9.44284263 -1 7 C1.89234315 6.17361624 3.88742431 6 7 6 C6.4946875 5.65066406 5.989375 5.30132812 5.46875 4.94140625 C4.49421875 4.25884766 4.49421875 4.25884766 3.5 3.5625 C2.8503125 3.11003906 2.200625 2.65757813 1.53125 2.19140625 C1.0259375 1.79824219 0.520625 1.40507812 0 1 C0 0.67 0 0.34 0 0 Z " fill="#E0573D" transform="translate(134,7)"/>
<path d="M0 0 C1.5625 1.25 1.5625 1.25 3 3 C2.56986429 6.08156928 1.40234636 8.22939971 -0.375 10.75 C-0.79523437 11.36359375 -1.21546875 11.9771875 -1.6484375 12.609375 C-2.31746094 13.29773438 -2.31746094 13.29773438 -3 14 C-3.99 14 -4.98 14 -6 14 C-6.75 11.75 -6.75 11.75 -7 9 C-5.25 7 -5.25 7 -3 5 C-1.95650161 3.36021682 -0.94392019 1.69905634 0 0 Z " fill="#1A4E96" transform="translate(62,62)"/>
<path d="M0 0 C10.04272543 -0.62334158 10.04272543 -0.62334158 13.6875 1.75 C15 4 15 4 15 8 C13.68 7.67 12.36 7.34 11 7 C11 6.34 11 5.68 11 5 C7.37 4.34 3.74 3.68 0 3 C0 2.01 0 1.02 0 0 Z " fill="#184E9A" transform="translate(34,67)"/>
<path d="M0 0 C0.99 0.495 0.99 0.495 2 1 C2.33 0.67 2.66 0.34 3 0 C3.33 1.32 3.66 2.64 4 4 C8.97906259 4.75427297 8.97906259 4.75427297 14 5 C13 8 13 8 11 10 C9.68 10 8.36 10 7 10 C7 9.34 7 8.68 7 8 C6.030625 7.690625 5.06125 7.38125 4.0625 7.0625 C1 6 1 6 0 5 C-0.04063832 3.33382885 -0.042721 1.66611905 0 0 Z " fill="#1B4E97" transform="translate(70,130)"/>
<path d="M0 0 C-0.07090135 3.07454047 -0.2475065 6.01122299 -1 9 C-3.5625 11.0625 -3.5625 11.0625 -6 12 C-6.33 10.68 -6.66 9.36 -7 8 C-5.35 8 -3.7 8 -2 8 C-2.33 7.01 -2.66 6.02 -3 5 C-3.94875 5.515625 -4.8975 6.03125 -5.875 6.5625 C-6.90625 7.036875 -7.9375 7.51125 -9 8 C-9.66 7.67 -10.32 7.34 -11 7 C-9.70982586 6.01886757 -8.41780894 5.04015801 -7.125 4.0625 C-6.04605469 3.24458984 -6.04605469 3.24458984 -4.9453125 2.41015625 C-1.62049861 0 -1.62049861 0 0 0 Z " fill="#DA5B43" transform="translate(95,7)"/>
<path d="M0 0 C7.38461538 -0.36923077 7.38461538 -0.36923077 10.5 1.5 C10.995 1.995 11.49 2.49 12 3 C8.98509443 4.00496852 6.95818308 4.10335303 3.8125 4.0625 C2.46091797 4.04896484 2.46091797 4.04896484 1.08203125 4.03515625 C0.39496094 4.02355469 -0.29210937 4.01195312 -1 4 C-0.67 2.68 -0.34 1.36 0 0 Z " fill="#F84E30" transform="translate(111,3)"/>
<path d="M0 0 C1.98 0.66 3.96 1.32 6 2 C5.45773019 5.79588866 3.79872437 7.47211993 1 10 C0.67 8.35 0.34 6.7 0 5 C-0.99 4.67 -1.98 4.34 -3 4 C-2.01 2.68 -1.02 1.36 0 0 Z " fill="#234C8B" transform="translate(145,66)"/>
<path d="M0 0 C0.66 0 1.32 0 2 0 C1.44854729 5.23880078 0.57077907 9.97350697 -1 15 C-6 8.63636364 -6 8.63636364 -6 4 C-5.34 4 -4.68 4 -4 4 C-3.34 5.32 -2.68 6.64 -2 8 C-0.03177114 6.03177114 -0.33751619 2.65191291 0 0 Z " fill="#284B7E" transform="translate(75,83)"/>
<path d="M0 0 C1.32 0 2.64 0 4 0 C4 0.66 4 1.32 4 2 C3.34 2 2.68 2 2 2 C2 3.32 2 4.64 2 6 C0.68 6 -0.64 6 -2 6 C-2 6.99 -2 7.98 -2 9 C-2.99 9 -3.98 9 -5 9 C-4.67 7.35 -4.34 5.7 -4 4 C-3.34 4 -2.68 4 -2 4 C-1.34 2.68 -0.68 1.36 0 0 Z " fill="#174F9A" transform="translate(93,121)"/>
<path d="M0 0 C0.33 0 0.66 0 1 0 C1.67466746 3.22754814 2.33830569 6.45726935 3 9.6875 C3.19078125 10.59951172 3.3815625 11.51152344 3.578125 12.45117188 C3.75859375 13.33740234 3.9390625 14.22363281 4.125 15.13671875 C4.29257813 15.94842529 4.46015625 16.76013184 4.6328125 17.59643555 C5.0153713 20.10061865 5.06298509 22.47075502 5 25 C0.71884727 16.82858239 -0.47040239 9.16413554 0 0 Z " fill="#224D82" transform="translate(105,14)"/>
<path d="M0 0 C1.98 1.65 3.96 3.3 6 5 C6.61875 4.690625 7.2375 4.38125 7.875 4.0625 C9.25 3.375 10.625 2.6875 12 2 C11.3125 3.9375 11.3125 3.9375 10 6 C7.20402714 6.86029934 4.92828926 7 2 7 C1.01 8.485 1.01 8.485 0 10 C-0.99 8.68 -1.98 7.36 -3 6 C-2.01 6 -1.02 6 0 6 C0 4.02 0 2.04 0 0 Z " fill="#E2563B" transform="translate(72,13)"/>
<path d="M0 0 C2 2 2 2 2.046875 4.64453125 C1.94890625 5.68996094 1.8509375 6.73539062 1.75 7.8125 C1.66234375 8.85019531 1.5746875 9.88789062 1.484375 10.95703125 C1.01498346 13.90587006 0.22339439 16.28747391 -1 19 C-1.66 19 -2.32 19 -3 19 C-3.33 17.02 -3.66 15.04 -4 13 C-2.68 12.67 -1.36 12.34 0 12 C0 8.04 0 4.08 0 0 Z " fill="#204B87" transform="translate(93,87)"/>
<path d="M0 0 C2.0625 0.4375 2.0625 0.4375 4 1 C4 2.98 4 4.96 4 7 C2.68 7 1.36 7 0 7 C-2.25 4.5 -2.25 4.5 -4 2 C-3.01 1.67 -2.02 1.34 -1 1 C-0.67 0.67 -0.34 0.34 0 0 Z " fill="#E45537" transform="translate(77,21)"/>
<path d="M0 0 C1.98 0 3.96 0 6 0 C5.690625 0.86625 5.38125 1.7325 5.0625 2.625 C4.07508101 5.76150738 3.46418941 8.75067413 3 12 C0.50494038 9.50494038 0.64051624 8.32671112 0.375 4.875 C0.30023438 3.96492188 0.22546875 3.05484375 0.1484375 2.1171875 C0.09945312 1.41851562 0.05046875 0.71984375 0 0 Z " fill="#204C8D" transform="translate(85,84)"/>
<path d="M0 0 C0.33 0 0.66 0 1 0 C1 1.65 1 3.3 1 5 C1.66 5 2.32 5 3 5 C3 8.96 3 12.92 3 17 C0.25291371 12.87937057 -0.11949692 10.15723861 -0.0625 5.3125 C-0.05347656 4.31863281 -0.04445312 3.32476562 -0.03515625 2.30078125 C-0.02355469 1.54152344 -0.01195313 0.78226563 0 0 Z " fill="#CE614E" transform="translate(1,39)"/>
<path d="M0 0 C1.32 0 2.64 0 4 0 C4 1.32 4 2.64 4 4 C3.01 4 2.02 4 1 4 C0.87625 4.639375 0.7525 5.27875 0.625 5.9375 C0.41875 6.618125 0.2125 7.29875 0 8 C-0.99 8.495 -0.99 8.495 -2 9 C-2.20140476 5.37471432 -1.85776765 3.13498292 0 0 Z " fill="#F8492C" transform="translate(16,11)"/>
<path d="M0 0 C0.99 0 1.98 0 3 0 C2.25 6.625 2.25 6.625 0 10 C-0.19412181 8.52168779 -0.38012131 7.04230684 -0.5625 5.5625 C-0.66691406 4.73878906 -0.77132812 3.91507812 -0.87890625 3.06640625 C-0.91886719 2.38449219 -0.95882812 1.70257813 -1 1 C-0.67 0.67 -0.34 0.34 0 0 Z " fill="#264A7E" transform="translate(114,82)"/>
<path d="M0 0 C2.96175123 0.61277612 4.38058783 1.25372522 7 3 C7 3.99 7 4.98 7 6 C6.01 6 5.02 6 4 6 C4 5.34 4 4.68 4 4 C2.35 4 0.7 4 -1 4 C-0.67 2.68 -0.34 1.36 0 0 Z " fill="#1A4F99" transform="translate(17,76)"/>
<path d="M0 0 C0.33 0 0.66 0 1 0 C1.125 7.625 1.125 7.625 0 11 C-0.66 11 -1.32 11 -2 11 C-2.28571429 3.57142857 -2.28571429 3.57142857 0 0 Z " fill="#ED5336" transform="translate(4,33)"/>
<path d="M0 0 C3.14958831 3.42346555 3.56179109 6.44262737 4 11 C3.34 10.67 2.68 10.34 2 10 C2 9.01 2 8.02 2 7 C1.01 6.67 0.02 6.34 -1 6 C-0.67 4.02 -0.34 2.04 0 0 Z " fill="#E1593E" transform="translate(153,26)"/>
<path d="M0 0 C6.52307692 0.49230769 6.52307692 0.49230769 8.9375 3.0625 C9.288125 3.701875 9.63875 4.34125 10 5 C3.47692308 4.50769231 3.47692308 4.50769231 1.0625 1.9375 C0.711875 1.298125 0.36125 0.65875 0 0 Z " fill="#F74F2C" transform="translate(132,9)"/>
<path d="M0 0 C2.9375 0.25 2.9375 0.25 4.9375 1.25 C4.6075 1.91 4.2775 2.57 3.9375 3.25 C0.6375 3.25 -2.6625 3.25 -6.0625 3.25 C-3.0625 0.25 -3.0625 0.25 0 0 Z " fill="#2B5084" transform="translate(154.0625,49.75)"/>
<path d="M0 0 C-1.27007214 0.9593419 -2.54108919 1.91743294 -3.8125 2.875 C-4.87404297 3.67550781 -4.87404297 3.67550781 -5.95703125 4.4921875 C-7.60456297 5.70814781 -9.29624211 6.86416141 -11 8 C-10.690625 7.401875 -10.38125 6.80375 -10.0625 6.1875 C-8.89790296 3.91043228 -8.89790296 3.91043228 -8 1 C-2.59770115 -1.29885057 -2.59770115 -1.29885057 0 0 Z " fill="#DB5342" transform="translate(25,14)"/>
<path d="M0 0 C2.02350324 3.03525486 2.32124018 4.19426202 2.625 7.6875 C2.69976562 8.49574219 2.77453125 9.30398437 2.8515625 10.13671875 C2.90054688 10.75160156 2.94953125 11.36648437 3 12 C0.9375 10.5 0.9375 10.5 -1 8 C-1.05928384 5.17593353 -0.55954815 2.79774073 0 0 Z " fill="#304B71" transform="translate(81,33)"/>
<path d="M0 0 C1.70884005 1.62339805 3.37446717 3.29319053 5 5 C5 5.66 5 6.32 5 7 C4.34 7 3.68 7 3 7 C2.67 7.66 2.34 8.32 2 9 C0.14223235 5.86501708 -0.20140476 3.62528568 0 0 Z " fill="#E1593A" transform="translate(147,17)"/>
<path d="M0 0 C-0.33 1.65 -0.66 3.3 -1 5 C-2.65 5 -4.3 5 -6 5 C-6 4.34 -6 3.68 -6 3 C-2.53846154 0 -2.53846154 0 0 0 Z " fill="#155099" transform="translate(123,94)"/>
<path d="M0 0 C0.33 0.99 0.66 1.98 1 3 C-0.98 3.99 -0.98 3.99 -3 5 C-3.99 4.34 -4.98 3.68 -6 3 C-3.8614515 0.8614515 -2.86724686 0.57344937 0 0 Z " fill="#175293" transform="translate(145,70)"/>
<path d="M0 0 C1.32 0 2.64 0 4 0 C4 0.99 4 1.98 4 3 C4.99 3 5.98 3 7 3 C6.67 4.32 6.34 5.64 6 7 C4.02 4.69 2.04 2.38 0 0 Z " fill="#254886" transform="translate(3,66)"/>
<path d="M0 0 C0.66 0 1.32 0 2 0 C1.45773019 3.79588866 -0.20127563 5.47211993 -3 8 C-2.67 6.02 -2.34 4.04 -2 2 C-1.34 2 -0.68 2 0 2 C0 1.34 0 0.68 0 0 Z " fill="#284C7E" transform="translate(149,68)"/>
<path d="M0 0 C0.99 0.33 1.98 0.66 3 1 C1.71937515 2.7074998 0.38232443 4.37373596 -1 6 C-1.66 6 -2.32 6 -3 6 C-2.625 3.5625 -2.625 3.5625 -2 1 C-1.34 0.67 -0.68 0.34 0 0 Z " fill="#F0442B" transform="translate(83,21)"/>
<path d="M0 0 C2 3 2 3 1.625 5.6875 C1.41875 6.450625 1.2125 7.21375 1 8 C0.01 8 -0.98 8 -2 8 C-1.125 1.125 -1.125 1.125 0 0 Z " fill="#F54925" transform="translate(11,16)"/>
</svg>
